<svg width="172" height="31" viewBox="0 0 172 31" fill="none" xmlns="http://www.w3.org/2000/svg">
<path d="M45.6668 20.3459V27.7218H42.0996V9.76318H45.6668V17.0321H47.3267L53.2249 9.76318H57.675L50.2228 18.5287L58.2401 27.7218H53.6134L47.2914 20.3459H45.6668Z" fill="#FF3D3A"/>
<path fill-rule="evenodd" clip-rule="evenodd" d="M66.9285 26.3678V27.7218H70.1778V15.2861H66.9285V16.6758C66.1162 15.6425 64.9507 14.9655 63.2554 14.9655C59.8295 14.9655 57.2866 17.7804 57.2866 21.5218C57.2866 25.2632 59.8295 28.0781 63.2554 28.0781C64.9154 28.0781 66.1162 27.3655 66.9285 26.3678ZM63.8558 24.9068C61.9133 24.9068 60.6772 23.3746 60.6772 21.4861C60.6772 19.5976 61.9133 18.0655 63.8558 18.0655C65.763 18.0655 67.0345 19.5264 67.0345 21.4861C67.0345 23.4459 65.763 24.9068 63.8558 24.9068Z" fill="#FF3D3A"/>
<path d="M76.0053 27.7218L71.1313 15.2861H74.7338L77.9125 24.1942L81.1264 15.2861H84.6229L79.8196 27.7218H76.0053Z" fill="#FF3D3A"/>
<path fill-rule="evenodd" clip-rule="evenodd" d="M96.6309 22.6264C96.6663 22.3057 96.7016 21.8781 96.7016 21.4861C96.7016 17.6022 94.2646 14.9655 90.6975 14.9655C87.0244 14.9655 84.4814 17.6379 84.4814 21.5574C84.4814 25.4769 87.095 28.0781 90.8741 28.0781C92.9578 28.0781 94.7237 27.4724 96.1365 26.1896L94.194 24.016C93.311 24.7643 92.1455 25.1919 91.086 25.1919C89.4966 25.1919 88.2252 24.408 87.9073 22.6264H96.6309ZM93.3463 20.3459H87.9073C88.1899 18.7781 89.1081 17.8517 90.6621 17.8517C92.1102 17.8517 93.0285 18.7425 93.3463 20.3459Z" fill="#FF3D3A"/>
<path d="M118.281 17.0678V9.90576H121.778V27.6506H118.281V20.346H109.805V27.6506H106.308V9.90576H109.805V17.0678H118.281Z" fill="#FF3D3A"/>
<path fill-rule="evenodd" clip-rule="evenodd" d="M130.289 27.9356C134.104 27.9356 136.894 25.1919 136.894 21.4862C136.894 17.8161 134.104 15.0367 130.289 15.0367C126.51 15.0367 123.72 17.7804 123.72 21.4862C123.72 25.1919 126.51 27.9356 130.289 27.9356ZM130.289 24.8712C128.453 24.8712 127.075 23.4816 127.075 21.4862C127.075 19.5264 128.453 18.1011 130.289 18.1011C132.161 18.1011 133.539 19.4908 133.539 21.4862C133.539 23.4816 132.161 24.8712 130.289 24.8712Z" fill="#FF3D3A"/>
<path d="M158.261 19.8114V27.6149H155.012V20.8448C155.012 19.0632 154.129 18.1011 152.646 18.1011C151.233 18.1011 150.067 19.0275 150.067 20.8804V27.6149H146.783V20.8448C146.783 19.0632 145.9 18.1011 144.417 18.1011C143.004 18.1011 141.838 19.0275 141.838 20.8804V27.6149H138.554V15.3218H141.732V16.7827C142.615 15.4643 143.922 15.0011 145.3 15.0011C147.065 15.0011 148.513 15.785 149.326 17.1034C150.279 15.5356 151.869 15.0011 153.458 15.0011C156.354 15.0367 158.261 16.9609 158.261 19.8114Z" fill="#FF3D3A"/>
<path fill-rule="evenodd" clip-rule="evenodd" d="M171.859 22.5908C171.894 22.3057 171.929 21.8781 171.929 21.4862C171.929 17.6735 169.528 15.0367 165.996 15.0367C162.358 15.0367 159.851 17.6735 159.851 21.5218C159.851 25.3701 162.464 27.9356 166.173 27.9356C168.256 27.9356 169.987 27.3655 171.364 26.0827L169.457 23.9448C168.574 24.6931 167.444 25.1207 166.384 25.1207C164.83 25.1207 163.559 24.3724 163.241 22.5908H171.859ZM168.645 20.3459H163.241C163.524 18.8138 164.442 17.8873 165.996 17.8873C167.409 17.8873 168.327 18.7781 168.645 20.3459Z" fill="#FF3D3A"/>
<path fill-rule="evenodd" clip-rule="evenodd" d="M16.1759 0.24939C20.4494 0.24939 24.511 1.9241 27.5484 4.98847C30.5858 8.05284 32.2458 12.1149 32.2811 16.462V30.7505H0.0708008V16.462C0.0708008 12.1149 1.76608 8.05284 4.80345 4.98847C7.84082 1.9241 11.8671 0.24939 16.1759 0.24939ZM29.1377 16.462V18.2436L3.14349 25.477V16.4264C3.14349 9.19307 8.97101 3.34939 16.1406 3.34939C23.3102 3.34939 29.1377 9.2287 29.1377 16.462ZM29.1377 21.4862V27.5793H7.24041L29.1377 21.4862Z" fill="#FF3D3A"/>
</svg>
