<svg width="24" height="21" viewBox="0 0 24 21" fill="none" xmlns="http://www.w3.org/2000/svg">
<path fill-rule="evenodd" clip-rule="evenodd" d="M12.0896 19.9792C10.8249 18.9707 5.47472 14.5893 2.33501 10.1792C0.644827 7.45951 1.71896 3.80273 3.78639 2.08767C6.04709 0.21643 8.95265 0.778278 11.7625 3.62942C11.7829 3.64942 11.808 3.65894 11.8313 3.67418C11.8591 3.69417 11.8851 3.71893 11.9158 3.73131C11.94 3.74179 11.9651 3.74084 11.9901 3.74655C12.0236 3.75417 12.0561 3.76655 12.0896 3.76655C12.1249 3.76655 12.1583 3.75417 12.1927 3.74655C12.2169 3.74084 12.241 3.74084 12.2633 3.73131C12.2968 3.71798 12.3237 3.69227 12.3535 3.67132C12.3739 3.65608 12.3981 3.64846 12.4166 3.62942C15.2283 0.777325 18.1348 0.217382 20.3918 2.08767C22.4602 3.80273 23.5343 7.46046 21.8441 10.1792C18.7063 14.5874 13.3551 18.9698 12.0896 19.9792Z" fill="black"/>
<path d="M12.0896 19.9792C10.8249 18.9707 5.47472 14.5893 2.33501 10.1792C0.644827 7.45951 1.71896 3.80273 3.78639 2.08767C6.04709 0.21643 8.95265 0.778278 11.7625 3.62942C11.7829 3.64942 11.808 3.65894 11.8313 3.67418C11.8591 3.69417 11.8851 3.71893 11.9158 3.73131C11.94 3.74179 11.9651 3.74084 11.9901 3.74655C12.0236 3.75417 12.0561 3.76655 12.0896 3.76655C12.1249 3.76655 12.1583 3.75417 12.1927 3.74655C12.2169 3.74084 12.241 3.74084 12.2633 3.73131C12.2968 3.71798 12.3237 3.69227 12.3535 3.67132C12.3739 3.65608 12.3981 3.64846 12.4166 3.62942C15.2283 0.777325 18.1348 0.217382 20.3918 2.08767C22.4602 3.80273 23.5343 7.46046 21.8441 10.1792C18.7063 14.5874 13.3551 18.9698 12.0896 19.9792" stroke="black" stroke-width="1.5"/>
</svg>
